<?xml version="1.0" standalone="no"?>
<!DOCTYPE svg PUBLIC "-//W3C//DTD SVG 20010904//EN"
 "http://www.w3.org/TR/2001/REC-SVG-20010904/DTD/svg10.dtd">
<svg version="1.0" xmlns="http://www.w3.org/2000/svg"
 width="330.000000pt" height="90.000000pt" viewBox="0 0 330.000000 90.000000"
 preserveAspectRatio="xMidYMid meet">

<g transform="translate(0.000000,90.000000) scale(0.100000,-0.100000)"
fill="#000000" stroke="none">
<path d="M2148 864 c-5 -4 -8 -29 -8 -55 0 -85 -51 -419 -69 -447 -3 -5 -75
-17 -159 -26 -172 -19 -194 -25 -217 -60 -39 -59 44 -219 129 -251 38 -15 47
-15 78 -2 65 27 115 99 159 231 l27 81 52 8 c29 4 55 6 57 4 2 -2 13 -37 24
-77 22 -79 37 -115 46 -106 3 3 -4 38 -16 78 -13 40 -25 81 -27 91 -4 13 1 17
23 18 l28 1 -30 7 c-26 5 -30 12 -41 66 -12 58 -27 188 -42 363 -4 46 -10 80
-14 76z m19 -322 c6 -48 14 -108 18 -133 l7 -47 -40 -7 c-23 -4 -45 -4 -50 -1
-4 2 2 56 15 118 12 62 23 126 23 142 0 55 15 15 27 -72z m-107 -215 c0 -23
-36 -119 -68 -182 -65 -129 -142 -152 -215 -65 -61 73 -88 156 -63 195 18 27
31 30 191 50 146 17 155 17 155 2z"/>
<path d="M680 853 c-133 -22 -272 -82 -337 -146 -57 -54 -70 -94 -47 -142 21
-45 60 -77 187 -153 154 -92 147 -85 100 -111 -46 -27 -66 -55 -58 -82 13 -40
88 -47 143 -13 26 17 29 59 7 91 -15 21 -14 22 22 32 57 16 63 14 63 -20 0
-39 20 -34 34 9 6 17 16 37 23 43 13 13 12 13 28 -36 6 -19 39 -19 55 0 7 8
21 15 31 15 15 0 17 -5 13 -29 -3 -16 -1 -32 5 -35 14 -9 47 9 55 31 6 16 6
16 -12 0 -26 -24 -32 -21 -32 13 0 21 -5 30 -16 30 -10 0 -14 6 -10 15 3 8 1
15 -5 15 -5 0 -14 -11 -18 -24 -8 -19 -29 -36 -46 -36 -2 0 -5 15 -7 32 -4 41
-28 48 -57 17 -26 -28 -26 -21 -7 87 24 134 28 197 13 218 -12 17 -14 17 -28
0 -10 -13 -15 -55 -18 -169 l-3 -151 -55 -12 -55 -11 -127 76 c-153 93 -211
146 -211 193 0 102 170 207 388 241 113 17 189 -4 211 -59 14 -33 2 -73 -31
-109 -21 -23 -22 -38 -1 -25 21 14 63 85 63 108 0 75 -122 120 -260 97z m119
-291 c-4 -46 -10 -87 -14 -90 -4 -4 -5 25 -1 63 3 39 6 83 6 100 0 17 4 25 9
20 4 -6 5 -47 0 -93z m-145 -274 c37 -52 8 -92 -62 -86 -32 3 -37 7 -40 30 -3
21 4 32 35 52 46 32 48 32 67 4z"/>
<path d="M2511 639 c-6 -18 -11 -91 -11 -164 l0 -131 -29 -22 c-35 -25 -41
-21 -41 30 0 31 -4 38 -19 38 -11 0 -23 -5 -26 -10 -4 -6 -15 -8 -26 -5 -12 4
-21 1 -25 -10 -4 -10 -13 -13 -25 -10 -20 7 -22 -2 -10 -45 l7 -25 19 35 c18
32 20 33 23 13 5 -33 16 -28 38 15 l19 37 3 -43 c4 -53 23 -63 63 -33 29 21
29 21 29 1 0 -28 56 -28 85 0 12 12 39 23 59 27 36 6 36 5 36 -31 0 -20 3 -36
8 -36 14 0 52 31 52 43 0 7 -7 4 -14 -6 -21 -27 -36 -21 -29 13 5 26 2 30 -15
30 -15 0 -20 5 -16 15 9 21 -9 19 -29 -5 -22 -26 -30 -25 -42 3 -7 15 -20 23
-43 25 -26 3 -31 6 -23 20 18 37 42 161 39 208 -3 41 -6 49 -24 52 -17 2 -24
-5 -33 -29z m24 -159 l-14 -55 3 107 c4 123 20 168 23 68 2 -36 -4 -90 -12
-120z m36 -116 c10 -13 10 -17 -2 -25 -23 -14 -39 -10 -39 9 0 34 20 42 41 16z
m-6 -54 c-3 -5 -11 -10 -16 -10 -6 0 -7 5 -4 10 3 6 11 10 16 10 6 0 7 -4 4
-10z"/>
<path d="M1034 365 c-24 -24 -25 -28 -11 -48 18 -28 57 -33 96 -13 46 24 46
36 -1 13 -43 -22 -70 -16 -76 17 -3 11 4 16 21 16 32 0 55 25 31 34 -26 10
-34 7 -60 -19z m46 5 c0 -5 -5 -10 -11 -10 -5 0 -7 5 -4 10 3 6 8 10 11 10 2
0 4 -4 4 -10z"/>
<path d="M2764 363 c-22 -24 -23 -28 -10 -47 18 -27 79 -27 119 -1 41 26 27
29 -21 3 -33 -18 -45 -21 -59 -12 -28 17 -21 37 15 46 35 9 41 22 16 32 -26
10 -34 7 -60 -21z m46 7 c0 -5 -5 -10 -11 -10 -5 0 -7 5 -4 10 3 6 8 10 11 10
2 0 4 -4 4 -10z"/>
<path d="M1250 362 c0 -23 -29 -64 -41 -57 -5 4 -9 20 -9 36 0 35 -23 36 -28
2 -4 -29 25 -56 54 -49 33 9 30 -7 -11 -61 -45 -59 -61 -114 -43 -151 7 -15
23 -28 35 -30 36 -5 54 36 61 134 4 73 9 91 30 116 25 29 26 30 34 9 9 -26 52
-28 68 -3 8 12 13 13 16 5 8 -18 49 -16 68 3 22 22 20 31 -2 11 -29 -26 -42
-20 -42 18 0 33 -2 35 -31 35 -22 0 -46 -12 -79 -40 -26 -22 -51 -40 -54 -40
-3 0 -6 18 -6 40 0 22 -4 40 -10 40 -5 0 -10 -8 -10 -18z m160 -5 c0 -17 -29
-57 -41 -57 -13 0 -11 44 3 58 16 16 38 15 38 -1z m-175 -233 c-8 -56 -31 -76
-44 -41 -11 29 -3 65 25 118 l19 34 3 -35 c2 -19 1 -53 -3 -76z"/>
<path d="M1500 367 c0 -7 6 -19 12 -25 10 -10 10 -17 1 -31 -10 -15 -9 -22 2
-31 17 -14 35 -5 35 19 0 9 6 23 13 30 10 10 9 11 -4 6 -9 -3 -22 1 -29 10
-12 14 -11 18 1 26 11 7 9 9 -8 9 -13 0 -23 -6 -23 -13z m40 -67 c0 -5 -5 -10
-11 -10 -5 0 -7 5 -4 10 3 6 8 10 11 10 2 0 4 -4 4 -10z"/>
<path d="M280 235 c0 -12 18 -15 100 -15 82 0 100 3 100 15 0 12 -18 15 -100
15 -82 0 -100 -3 -100 -15z"/>
<path d="M730 235 c0 -13 31 -15 220 -15 189 0 220 2 220 15 0 13 -31 15 -220
15 -189 0 -220 -2 -220 -15z"/>
<path d="M1300 235 c0 -13 26 -15 175 -15 149 0 175 2 175 15 0 13 -26 15
-175 15 -149 0 -175 -2 -175 -15z"/>
<path d="M2290 235 c0 -13 41 -15 305 -15 264 0 305 2 305 15 0 13 -41 15
-305 15 -264 0 -305 -2 -305 -15z"/>
</g>
</svg>
