<?xml version="1.0" standalone="no"?>
<!DOCTYPE svg PUBLIC "-//W3C//DTD SVG 20010904//EN"
 "http://www.w3.org/TR/2001/REC-SVG-20010904/DTD/svg10.dtd">
<svg version="1.0" xmlns="http://www.w3.org/2000/svg"
 width="330.000000pt" height="90.000000pt" viewBox="0 0 330.000000 90.000000"
 preserveAspectRatio="xMidYMid meet">
<metadata>
Created by potrace 1.16, written by Peter Selinger 2001-2019
</metadata>
<g transform="translate(0.000000,90.000000) scale(0.100000,-0.100000)"
fill="#000000" stroke="none">
<path d="M2148 864 c-5 -4 -8 -29 -8 -55 0 -85 -51 -419 -69 -447 -3 -5 -75
-17 -159 -26 -172 -19 -194 -25 -217 -60 -39 -59 44 -219 129 -251 38 -15 47
-15 78 -2 65 27 115 99 159 231 l27 81 52 8 c29 4 55 6 57 4 2 -2 13 -37 24
-77 22 -79 37 -115 46 -106 3 3 -4 38 -16 78 -13 40 -25 81 -27 91 -4 13 1 17
23 18 l28 1 -30 7 c-26 5 -30 12 -41 66 -12 58 -27 188 -42 363 -4 46 -10 80
-14 76z m-88 -537 c0 -23 -36 -119 -68 -182 -65 -129 -142 -152 -215 -65 -61
73 -88 156 -63 195 18 27 31 30 191 50 146 17 155 17 155 2z"/>
<path d="M680 853 c-133 -22 -272 -82 -337 -146 -57 -54 -70 -94 -47 -142 21
-45 60 -77 187 -153 154 -92 147 -85 100 -111 -46 -27 -66 -55 -58 -82 13 -40
88 -47 143 -13 26 17 29 59 7 91 -15 21 -14 22 22 32 57 16 63 14 63 -20 0
-39 20 -34 34 9 6 17 16 37 23 43 13 13 12 13 28 -36 6 -19 39 -19 55 0 7 8
21 15 31 15 15 0 17 -5 13 -29 -3 -16 -1 -32 5 -35 14 -9 47 9 55 31 6 16 6
16 -12 0 -26 -24 -32 -21 -32 13 0 21 -5 30 -16 30 -10 0 -14 6 -10 15 3 8 1
15 -5 15 -5 0 -14 -11 -18 -24 -8 -19 -29 -36 -46 -36 -2 0 -5 15 -7 32 -4 41
-28 48 -57 17 -26 -28 -26 -21 -7 87 24 134 28 197 13 218 -12 17 -14 17 -28
0 -10 -13 -15 -55 -18 -169 l-3 -151 -55 -12 -55 -11 -127 76 c-153 93 -211
146 -211 193 0 102 170 207 388 241 113 17 189 -4 211 -59 14 -33 2 -73 -31
-109 -21 -23 -22 -38 -1 -25 21 14 63 85 63 108 0 75 -122 120 -260 97z"/>
<path d="M2511 639 c-6 -18 -11 -91 -11 -164 l0 -131 -29 -22 c-35 -25 -41
-21 -41 30 0 31 -4 38 -19 38 -11 0 -23 -5 -26 -10 -4 -6 -15 -8 -26 -5 -12 4
-21 1 -25 -10 -4 -10 -13 -13 -25 -10 -20 7 -22 -2 -10 -45 l7 -25 19 35 c18
32 20 33 23 13 5 -33 16 -28 38 15 l19 37 3 -43 c4 -53 23 -63 63 -33 29 21
29 21 29 1 0 -28 56 -28 85 0 12 12 39 23 59 27 36 6 36 5 36 -31 0 -20 3 -36
8 -36 14 0 52 31 52 43 0 7 -7 4 -14 -6 -21 -27 -36 -21 -29 13 5 26 2 30 -15
30 -15 0 -20 5 -16 15 9 21 -9 19 -29 -5 -22 -26 -30 -25 -42 3 -7 15 -20 23
-43 25 -26 3 -31 6 -23 20 18 37 42 161 39 208 -3 41 -6 49 -24 52 -17 2 -24
-5 -33 -29z"/>
<path d="M1250 362 c0 -23 -29 -64 -41 -57 -5 4 -9 20 -9 36 0 35 -23 36 -28
2 -4 -29 25 -56 54 -49 33 9 30 -7 -11 -61 -45 -59 -61 -114 -43 -151 7 -15
23 -28 35 -30 36 -5 54 36 61 134 4 73 9 91 30 116 25 29 26 30 34 9 9 -26 52
-28 68 -3 8 12 13 13 16 5 8 -18 49 -16 68 3 22 22 20 31 -2 11 -29 -26 -42
-20 -42 18 0 33 -2 35 -31 35 -22 0 -46 -12 -79 -40 -26 -22 -51 -40 -54 -40
-3 0 -6 18 -6 40 0 22 -4 40 -10 40 -5 0 -10 -8 -10 -18z"/>
<path d="M2290 235 c0 -13 41 -15 305 -15 264 0 305 2 305 15 0 13 -41 15
-305 15 -264 0 -305 -2 -305 -15z"/>
</g>
</svg>
